# xmcd
#
# Track frame offsets: 
#        150
#        14632
#        31849
#        47878
#        61907
#        77246
#        91828
#        105220
#        120524
#        133501
#        144986
#        160508
#        176342
#        193948
#        211741
#        234541
#        251378
#        268949
#        286821
#        306960
#
# Disc length: 4291 seconds
#
# Revision: 0
# Processed by: cddbd v1.5.2PL0 Copyright (c) Steve Scherf et al.
# Submitted via: ExactAudioCopy v0.95b3
#
DISCID=0810c114
DTITLE=Various Artist - Secret Garden Disk 1
DYEAR=1900
DGENRE=
TTITLE0=Nocturne
TTITLE1=Pastorale
TTITLE2=Song From a Secret Garden
TTITLE3=Sigma
TTITLE4=Papillon
TTITLE5=Serenade To Spring
TTITLE6=Atlantia
TTITLE7=Heartstrings
TTITLE8=Adagio
TTITLE9=The Rap
TTITLE10=Chaconne
TTITLE11=Cantoluna
TTITLE12=Ode To Simplicity 
TTITLE13=Awakening
TTITLE14=You Raise Me Up
TTITLE15=Silent Wings
TTITLE16=Duo
TTITLE17=Belonging
TTITLE18=Gates Of Dawn
TTITLE19=The Promise
EXTD=
EXTT0=
EXTT1=
EXTT2=
EXTT3=
EXTT4=
EXTT5=
EXTT6=
EXTT7=
EXTT8=
EXTT9=
EXTT10=
EXTT11=
EXTT12=
EXTT13=
EXTT14=
EXTT15=
EXTT16=
EXTT17=
EXTT18=
EXTT19=
PLAYORDER=
